<?xml version="1.0" encoding="UTF-8"?>
<svg version="1.1" xmlns="http://www.w3.org/2000/svg" width="225" height="201">
<path d="M0 0 C74.25 0 148.5 0 225 0 C225 66.33 225 132.66 225 201 C150.75 201 76.5 201 0 201 C0 134.67 0 68.34 0 0 Z " fill="#F0F3F8" transform="translate(0,0)"/>
<path d="M0 0 C1.87109375 0.390625 1.87109375 0.390625 3.80859375 2.140625 C4.87109375 4.390625 4.87109375 4.390625 5.08911133 6.34936523 C5.73168798 8.63889478 5.73168798 8.63889478 8.27612305 9.89868164 C9.32195557 10.36137451 10.36778809 10.82406738 11.4453125 11.30078125 C12.58806641 11.81576172 13.73082031 12.33074219 14.90820312 12.86132812 C16.11283203 13.38662109 17.31746094 13.91191406 18.55859375 14.453125 C20.91690921 15.5059673 23.27498982 16.55933584 25.6328125 17.61328125 C26.68428467 18.07484619 27.73575684 18.53641113 28.8190918 19.01196289 C30.93629594 19.96835452 33.02360087 20.99267965 35.08276367 22.06835938 C38.3677663 23.62615416 39.9650762 23.45972955 43.49609375 22.828125 C48.55813768 22.20139575 48.55813768 22.20139575 51.55859375 24.015625 C53.0562359 26.72564414 53.20999595 28.34050519 52.87109375 31.390625 C54.17397339 31.791604 54.17397339 31.791604 55.50317383 32.20068359 C58.79976969 33.36542504 61.68560761 34.76842672 64.7578125 36.4296875 C65.86189453 37.00976562 66.96597656 37.58984375 68.10351562 38.1875 C70.39491518 39.39990813 72.67893722 40.62637003 74.95507812 41.8671875 C81.47446257 45.25741876 86.24603274 47.11007052 93.63989258 46.32177734 C95.87109375 46.390625 95.87109375 46.390625 97.65112305 47.65869141 C99.66582842 50.5188715 99.23258055 53.01674822 98.87109375 56.390625 C98.37891357 56.82544189 97.8867334 57.26025879 97.37963867 57.70825195 C95.10052718 60.24998319 95.43540174 62.44821167 95.359375 65.80859375 C95.32392578 67.06220703 95.28847656 68.31582031 95.25195312 69.60742188 C95.21811523 71.57291992 95.21811523 71.57291992 95.18359375 73.578125 C95.15041709 74.91344513 95.11592709 76.24873332 95.08007812 77.58398438 C94.99747318 80.85278004 94.92836146 84.12130312 94.87109375 87.390625 C95.50917969 87.66261719 96.14726562 87.93460937 96.8046875 88.21484375 C98.87109375 89.390625 98.87109375 89.390625 99.93359375 92.203125 C99.90265625 93.7809375 99.90265625 93.7809375 99.87109375 95.390625 C99.0615625 95.99648437 98.25203125 96.60234375 97.41796875 97.2265625 C94.40702666 100.05141423 94.39704223 102.76958216 94.1640625 106.78515625 C94.10441188 109.25734287 94.07010741 111.73024564 94.05859375 114.203125 C94.03345703 115.46833984 94.00832031 116.73355469 93.98242188 118.03710938 C93.92358884 121.15526043 93.88727869 124.27200867 93.87109375 127.390625 C94.83015625 127.8546875 94.83015625 127.8546875 95.80859375 128.328125 C97.87109375 129.390625 97.87109375 129.390625 98.87109375 130.390625 C99.23869191 134.28716546 99.450387 136.55386809 97.18359375 139.828125 C94.39751192 141.71061272 93.17386194 141.79340161 89.87109375 141.390625 C89.13721436 141.15351807 88.40333496 140.91641113 87.6472168 140.67211914 C83.78481406 140.28047809 81.20187718 141.80611069 77.890625 143.57421875 C77.23656174 143.90857437 76.58249847 144.24292999 75.90861511 144.5874176 C73.82655959 145.65458864 71.75496086 146.74037469 69.68359375 147.828125 C67.59988547 148.90875306 65.51422531 149.98539647 63.42643738 151.05812073 C62.12931395 151.72603553 60.8348686 152.39918188 59.54341125 153.07798767 C55.09142806 155.390625 55.09142806 155.390625 52.87109375 155.390625 C52.95359375 156.133125 53.03609375 156.875625 53.12109375 157.640625 C52.87109375 160.390625 52.87109375 160.390625 51.24609375 162.703125 C48.19179277 164.87328622 46.55693267 164.76673101 42.87109375 164.390625 C42.13141357 164.15351807 41.3917334 163.91641113 40.62963867 163.67211914 C36.73383629 163.27457421 34.04138946 164.83592193 30.671875 166.57421875 C29.99561569 166.90857437 29.31935638 167.24292999 28.62260437 167.5874176 C26.46952442 168.65471346 24.32644837 169.74046576 22.18359375 170.828125 C20.02846059 171.90869249 17.87145862 172.98532193 15.71244812 174.05812073 C14.37094372 174.72611932 13.03198942 175.39926831 11.69587708 176.07798767 C7.09135749 178.390625 7.09135749 178.390625 4.87109375 178.390625 C4.74734375 179.339375 4.62359375 180.288125 4.49609375 181.265625 C3.87109375 184.390625 3.87109375 184.390625 1.87109375 186.390625 C-5.13972542 186.94703922 -5.13972542 186.94703922 -8.12890625 185.265625 C-9.61439716 182.48032954 -9.50941338 180.49809989 -9.12890625 177.390625 C-7.75390625 175.015625 -7.75390625 175.015625 -6.12890625 173.390625 C-5.46890625 173.390625 -4.80890625 173.390625 -4.12890625 173.390625 C-4.12890625 164.810625 -4.12890625 156.230625 -4.12890625 147.390625 C-8.21598284 145.3470867 -11.44351038 144.90971592 -15.87890625 144.515625 C-52.71986857 140.60956671 -81.7843725 120.31117088 -107.12890625 94.390625 C-105.532039 90.46344565 -102.84410544 87.76046748 -99.87890625 84.828125 C-99.08480347 84.04139404 -99.08480347 84.04139404 -98.2746582 83.23876953 C-92.29399497 77.42828422 -85.86047406 72.29996464 -79.12890625 67.390625 C-78.23365234 66.73682861 -78.23365234 66.73682861 -77.3203125 66.06982422 C-58.59746983 52.58635768 -38.74980099 44.83477659 -15.84521484 42.37768555 C-14.90242676 42.27496338 -13.95963867 42.17224121 -12.98828125 42.06640625 C-12.14749023 41.98302002 -11.30669922 41.89963379 -10.44042969 41.8137207 C-7.74603701 41.43157944 -7.74603701 41.43157944 -4.12890625 39.390625 C-4.12890625 30.810625 -4.12890625 22.230625 -4.12890625 13.390625 C-5.44890625 12.730625 -6.76890625 12.070625 -8.12890625 11.390625 C-9.1276716 7.79506974 -9.54523266 5.47307366 -8.19140625 1.953125 C-5.4318739 -0.13742981 -3.40100319 -0.17473044 0 0 Z " fill="#3180E6" transform="translate(112.12890625,5.609375)"/>
<path d="M0 0 C5.84155143 2.27284996 11.49318177 4.95621863 17.17529297 7.59521484 C19.12469834 8.49986001 21.07596237 9.4004079 23.02734375 10.30078125 C24.27094885 10.87735507 25.51444234 11.45416971 26.7578125 12.03125 C27.8833252 12.55267578 29.00883789 13.07410156 30.16845703 13.61132812 C33 15 33 15 36 17 C36 18.32 36 19.64 36 21 C36.66 21 37.32 21 38 21 C37.41117785 30.27394893 35.24113144 39.0146265 33 48 C33.99 48 34.98 48 36 48 C36.14622803 47.37432129 36.29245605 46.74864258 36.44311523 46.10400391 C37.10532792 43.27705709 37.7713655 40.45102513 38.4375 37.625 C38.66759766 36.64015625 38.89769531 35.6553125 39.13476562 34.640625 C39.35712891 33.69960938 39.57949219 32.75859375 39.80859375 31.7890625 C40.01282959 30.91975098 40.21706543 30.05043945 40.42749023 29.15478516 C41 27 41 27 42 25 C45 26 45 26 46.47387695 28.62036133 C49.38305736 35.27025155 49.38305736 35.27025155 50.46313477 37.81860352 C51.30836064 39.8027828 52.18112094 41.77317464 53.05664062 43.74414062 C53.59807447 45.00186499 54.13784436 46.26030724 54.67578125 47.51953125 C55.16989502 48.66526611 55.66400879 49.81100098 56.1730957 50.99145508 C57 54 57 54 56.16870117 56.24487305 C55.78302979 56.82406494 55.3973584 57.40325684 55 58 C54.49985047 60.54258463 54.49985047 60.54258463 55 63 C56.43991037 64.99963019 56.43991037 64.99963019 59 66 C61.72079845 66.23884872 64.25814068 66.13709297 67 66 C67.08131463 64.56344146 67.13933559 63.1255517 67.1875 61.6875 C67.22230469 60.88699219 67.25710937 60.08648437 67.29296875 59.26171875 C67.17790293 56.96906643 67.17790293 56.96906643 65.80078125 55.33203125 C64.01797812 53.85486777 64.01797812 53.85486777 61.56835938 53.27783203 C58.08374477 51.54413689 57.56757322 49.78726425 56.10546875 46.22265625 C55.62529297 45.06958984 55.14511719 43.91652344 54.65039062 42.72851562 C54.16763672 41.51873047 53.68488281 40.30894531 53.1875 39.0625 C52.43436523 37.25362305 52.43436523 37.25362305 51.66601562 35.40820312 C48 26.47509566 48 26.47509566 48 23 C53.63446832 24.64415633 58.66750028 27.22095482 63.875 29.875 C64.73480469 30.30941406 65.59460938 30.74382813 66.48046875 31.19140625 C68.17492302 32.04763276 69.86862929 32.90534144 71.56152344 33.76464844 C75.03403081 35.52384821 78.51665665 37.26236933 82 39 C82.125 41.875 82.125 41.875 82 45 C81.01 45.99 81.01 45.99 80 47 C80.33 47.66 80.66 48.32 81 49 C82.32 48.34 83.64 47.68 85 47 C86.485 47.99 86.485 47.99 88 49 C88.67295326 53.27396476 88.46282051 57.61690108 88.4375 61.9375 C88.45748047 63.14341797 88.47746094 64.34933594 88.49804688 65.59179688 C88.49708008 67.32333008 88.49708008 67.32333008 88.49609375 69.08984375 C88.49794678 70.15066162 88.4997998 71.21147949 88.50170898 72.30444336 C88 75 88 75 86.00219727 76.74829102 C85.34147217 77.16135498 84.68074707 77.57441895 84 78 C83.37276792 79.93425486 83.37276792 79.93425486 83.5 82 C83.4896875 82.680625 83.479375 83.36125 83.46875 84.0625 C83.8209386 86.20320521 83.8209386 86.20320521 86.00878906 87.26098633 C88 89 88 89 88.45410156 91.63549805 C88.4331543 92.66715088 88.41220703 93.69880371 88.390625 94.76171875 C88.37773437 95.87998047 88.36484375 96.99824219 88.3515625 98.15039062 C88.31804687 99.31763672 88.28453125 100.48488281 88.25 101.6875 C88.23195313 102.86634766 88.21390625 104.04519531 88.1953125 105.25976562 C88.14811859 108.17398926 88.08229077 111.08659031 88 114 C86.06793838 111.53191635 84.47800978 109.17828555 83.17578125 106.328125 C82.71655273 105.33232422 82.71655273 105.33232422 82.24804688 104.31640625 C81.93931641 103.63449219 81.63058594 102.95257813 81.3125 102.25 C80.99216797 101.55261719 80.67183594 100.85523437 80.34179688 100.13671875 C79.55693739 98.42642792 78.77788352 96.71347493 78 95 C78.23969351 102.19080537 80.15050958 106.6893158 83.91796875 112.8125 C85.20883901 116.61520806 85.27941941 118.98983838 84.2277832 122.84570312 C81.64753232 127.37307115 76.62271772 128.84449618 72 130.75 C69.97885832 131.63992503 67.95802244 132.53054492 65.9375 133.421875 C64.94878906 133.84404297 63.96007812 134.26621094 62.94140625 134.70117188 C59.20258285 136.35211315 55.5816329 138.1969857 51.9609375 140.09082031 C50 141 50 141 48 141 C48.56906177 136.77968545 49.55956031 133.27086411 51.28515625 129.3828125 C51.73310547 128.36445313 52.18105469 127.34609375 52.64257812 126.296875 C53.34543945 124.72679687 53.34543945 124.72679687 54.0625 123.125 C54.53494141 122.05507812 55.00738281 120.98515625 55.49414062 119.8828125 C56.65667301 117.2524362 57.82544602 114.62502483 59 112 C58.67 112.33 58.34 112.66 58 113 C57.34 113.66 56.68 114.32 56 115 C55.67 114.67 55.34 114.34 55 114 C51.37 122.25 47.74 130.5 44 139 C42.35 139 40.7 139 39 139 C38.67 139.99 38.34 140.98 38 142 C31.28460827 140.70024676 25.27980887 138.70071112 19 136 C19.34933594 135.41992188 19.69867188 134.83984375 20.05859375 134.2421875 C20.51363281 133.46101562 20.96867187 132.67984375 21.4375 131.875 C21.88996094 131.10929688 22.34242188 130.34359375 22.80859375 129.5546875 C24.35125207 126.54462452 24.35125207 126.54462452 25 121 C22.03 125.29 19.06 129.58 16 134 C10.69478762 133.11579794 6.90408748 131.94472434 2 130 C3.28519565 127.13302508 4.57129254 125.02392288 7 123 C7.66 123 8.32 123 9 123 C9 122.34 9 121.68 9 121 C7.948125 121.515625 6.89625 122.03125 5.8125 122.5625 C2.13752407 124.36395879 1.56339587 123.91267917 -3 123 C-3 117.06 -3 111.12 -3 105 C0.96 104.01 0.96 104.01 5 103 C8.21370604 101.2801436 11.33447529 99.33104943 13 96 C13.66 96 14.32 96 15 96 C15.144375 95.2575 15.28875 94.515 15.4375 93.75 C16 91 16 91 16.53125 89.28125 C17.18810255 86.08456757 17.09267802 83.0092261 17.0625 79.75 C17.05347656 78.48671875 17.04445312 77.2234375 17.03515625 75.921875 C17.02355469 74.95765625 17.01195312 73.9934375 17 73 C16.34 73 15.68 73 15 73 C14.71125 73.61875 14.4225 74.2375 14.125 74.875 C13 77 13 77 11 79 C6.16058232 79.55534301 4.08644286 79.72429524 0 77 C-2.22229996 73.66655006 -2.73077746 71.86168332 -2.5078125 67.9375 C-1.65875365 64.69801392 0.46206389 63.03034889 3 61 C1.02 60.01 -0.96 59.02 -3 58 C-3.10812003 55.24894578 -3.18734945 52.50214913 -3.25 49.75 C-3.28351563 48.97269531 -3.31703125 48.19539063 -3.3515625 47.39453125 C-3.45112665 41.57002825 -3.45112665 41.57002825 -0.984375 38.453125 C-0.32953125 37.97359375 0.3253125 37.4940625 1 37 C-0.05875074 33.59687262 -1.00902154 30.98646769 -3 28 C-3.44071805 23.84745662 -3.32415745 19.67336783 -3.3125 15.5 C-3.32861328 14.34628906 -3.34472656 13.19257813 -3.36132812 12.00390625 C-3.36197266 10.89917969 -3.36261719 9.79445313 -3.36328125 8.65625 C-3.36626221 7.64369141 -3.36924316 6.63113281 -3.37231445 5.58789062 C-2.95096838 2.65919008 -2.29834001 1.7836729 0 0 Z " fill="#3782E5" transform="translate(115,17)"/>
<path d="M0 0 C5.63446832 1.64415633 10.66750028 4.22095482 15.875 6.875 C16.73480469 7.30941406 17.59460938 7.74382813 18.48046875 8.19140625 C20.17492302 9.04763276 21.86862929 9.90534144 23.56152344 10.76464844 C27.03403081 12.52384821 30.51665665 14.26236933 34 16 C34.125 18.875 34.125 18.875 34 22 C33.34 22.66 32.68 23.32 32 24 C32.495 24.99 32.495 24.99 33 26 C34.32 25.34 35.64 24.68 37 24 C37.99 24.66 38.98 25.32 40 26 C40.67295326 30.27396476 40.46282051 34.61690108 40.4375 38.9375 C40.4674707 40.74637695 40.4674707 40.74637695 40.49804688 42.59179688 C40.49740234 43.74615234 40.49675781 44.90050781 40.49609375 46.08984375 C40.49887329 47.68107056 40.49887329 47.68107056 40.50170898 49.30444336 C40 52 40 52 38.00219727 53.74829102 C37.34147217 54.16135498 36.68074707 54.57441895 36 55 C35.37276792 56.93425486 35.37276792 56.93425486 35.5 59 C35.4896875 59.680625 35.479375 60.36125 35.46875 61.0625 C35.8209386 63.20320521 35.8209386 63.20320521 38.00878906 64.26098633 C40 66 40 66 40.45410156 68.63549805 C40.4331543 69.66715088 40.41220703 70.69880371 40.390625 71.76171875 C40.37773437 72.87998047 40.36484375 73.99824219 40.3515625 75.15039062 C40.31804687 76.31763672 40.28453125 77.48488281 40.25 78.6875 C40.23195312 79.86634766 40.21390625 81.04519531 40.1953125 82.25976562 C40.14811859 85.17398926 40.08229077 88.08659031 40 91 C38.06793838 88.53191635 36.47800978 86.17828555 35.17578125 83.328125 C34.71655273 82.33232422 34.71655273 82.33232422 34.24804688 81.31640625 C33.93931641 80.63449219 33.63058594 79.95257813 33.3125 79.25 C32.83200195 78.20392578 32.83200195 78.20392578 32.34179688 77.13671875 C31.55693739 75.42642792 30.77788352 73.71347493 30 72 C30.23969351 79.19080537 32.15050958 83.6893158 35.91796875 89.8125 C37.20883901 93.61520806 37.27941941 95.98983838 36.2277832 99.84570312 C33.64753232 104.37307115 28.62271772 105.84449618 24 107.75 C21.97885832 108.63992503 19.95802244 109.53054492 17.9375 110.421875 C16.94878906 110.84404297 15.96007812 111.26621094 14.94140625 111.70117188 C11.20258285 113.35211315 7.5816329 115.1969857 3.9609375 117.09082031 C2 118 2 118 0 118 C0.89153838 111.60760518 3.16565634 106.21398233 5.6875 100.3125 C6.10966797 99.26771484 6.53183594 98.22292969 6.96679688 97.14648438 C10.21362345 89.54117266 10.21362345 89.54117266 14.20703125 86.79296875 C17 86 17 86 19 86 C19 83.03 19 80.06 19 77 C17.824375 76.5875 16.64875 76.175 15.4375 75.75 C9.39231205 72.77043227 6.69075988 66.93527034 4 61 C3.30859375 58.12109375 3.30859375 58.12109375 3 56 C2.01 55.67 1.02 55.34 0 55 C-1.57500353 52.51315232 -2.93773919 50.12070435 -4.25 47.5 C-4.61843018 46.77256592 -4.98686035 46.04513184 -5.36645508 45.2956543 C-7.28520993 41.26918652 -8.54064801 38.33956468 -7.6875 33.8125 C-7.460625 32.554375 -7.23375 31.29625 -7 30 C-7.85464844 29.31679687 -8.70929688 28.63359375 -9.58984375 27.9296875 C-12 25 -12 25 -11.96264648 22.66577148 C-11.39812382 19.829711 -10.6808255 17.08958553 -9.875 14.3125 C-9.62234375 13.35021484 -9.3696875 12.38792969 -9.109375 11.39648438 C-7.29352679 4.58705357 -7.29352679 4.58705357 -6 2 C-3 3 -3 3 -1.52612305 5.62036133 C1.38305736 12.27025155 1.38305736 12.27025155 2.46313477 14.81860352 C3.30836064 16.8027828 4.18112094 18.77317464 5.05664062 20.74414062 C5.59807447 22.00186499 6.13784436 23.26030724 6.67578125 24.51953125 C7.16989502 25.66526611 7.66400879 26.81100098 8.1730957 27.99145508 C9 31 9 31 8.16870117 33.24487305 C7.78302979 33.82406494 7.3973584 34.40325684 7 35 C6.49985047 37.54258463 6.49985047 37.54258463 7 40 C8.43991037 41.99963019 8.43991037 41.99963019 11 43 C13.72079845 43.23884872 16.25814068 43.13709297 19 43 C19.08131463 41.56344146 19.13933559 40.1255517 19.1875 38.6875 C19.22230469 37.88699219 19.25710937 37.08648437 19.29296875 36.26171875 C19.17790293 33.96906643 19.17790293 33.96906643 17.80078125 32.33203125 C16.01797812 30.85486777 16.01797812 30.85486777 13.56835938 30.27783203 C10.08374477 28.54413689 9.56757322 26.78726425 8.10546875 23.22265625 C7.38520508 21.49305664 7.38520508 21.49305664 6.65039062 19.72851562 C6.16763672 18.51873047 5.68488281 17.30894531 5.1875 16.0625 C4.43436523 14.25362305 4.43436523 14.25362305 3.66601562 12.40820312 C0 3.47509566 0 3.47509566 0 0 Z " fill="#77ABE8" transform="translate(163,40)"/>
<path d="M0 0 C-0.58007812 0.57105469 -1.16015625 1.14210937 -1.7578125 1.73046875 C-13.76169811 14.18994737 -16.57530335 26.47660344 -16.34375 43.15625 C-16.07143926 50.2635603 -14.49128369 55.74325212 -11 62 C-10.53078125 62.84691406 -10.0615625 63.69382812 -9.578125 64.56640625 C-6.42651316 69.70895568 -2.74098192 73.3020341 2 77 C-4.81160691 79.27053564 -15.24314721 72.48227524 -21.60131836 69.32470703 C-34.089095 62.86579849 -55.55070102 50.52929403 -61 37 C-51.1257777 26.25238212 -16.60302675 -6.68956903 0 0 Z " fill="#EEF3F8" transform="translate(76,61)"/>
<path d="M0 0 C0.99 0 1.98 0 3 0 C3.01417969 1.09699219 3.02835937 2.19398437 3.04296875 3.32421875 C3.08988708 4.77868698 3.13813438 6.23311277 3.1875 7.6875 C3.19330078 8.40873047 3.19910156 9.12996094 3.20507812 9.87304688 C3.37866845 14.09707823 3.59706344 15.55318538 6.546875 18.82421875 C7.35640625 19.54222656 8.1659375 20.26023437 9 21 C9.0625 24.125 9.0625 24.125 8 27 C6.99598145 27.63965698 6.99598145 27.63965698 5.97167969 28.29223633 C3.72090103 29.88651506 3.72090103 29.88651506 3.45410156 32.8190918 C3.4331543 33.93453369 3.41220703 35.04997559 3.390625 36.19921875 C3.35839844 37.40771484 3.32617188 38.61621094 3.29296875 39.86132812 C3.27878906 41.12396484 3.26460938 42.38660156 3.25 43.6875 C3.20552734 45.59885742 3.20552734 45.59885742 3.16015625 47.54882812 C3.08935951 50.69928292 3.03670953 53.8489934 3 57 C3.639375 57.309375 4.27875 57.61875 4.9375 57.9375 C7 59 7 59 8 60 C8.36759816 63.89654046 8.57929325 66.16324309 6.3125 69.4375 C3.52641817 71.31998772 2.30276819 71.40277661 -1 71 C-1.73387939 70.76289307 -2.46775879 70.52578613 -3.22387695 70.28149414 C-7.08627969 69.88985309 -9.66921657 71.41548569 -12.98046875 73.18359375 C-13.63453201 73.51794937 -14.28859528 73.85230499 -14.96247864 74.1967926 C-17.04453416 75.26396364 -19.11613289 76.34974969 -21.1875 77.4375 C-23.27120828 78.51812806 -25.35686844 79.59477147 -27.44465637 80.66749573 C-28.7417798 81.33541053 -30.03622515 82.00855688 -31.3276825 82.68736267 C-35.77966569 85 -35.77966569 85 -38 85 C-37.9175 85.7425 -37.835 86.485 -37.75 87.25 C-38 90 -38 90 -39.625 92.3125 C-42.67930098 94.48266122 -44.31416108 94.37610601 -48 94 C-48.73968018 93.76289307 -49.47936035 93.52578613 -50.24145508 93.28149414 C-54.13725746 92.88394921 -56.82970429 94.44529693 -60.19921875 96.18359375 C-60.87547806 96.51794937 -61.55173737 96.85230499 -62.24848938 97.1967926 C-64.40156933 98.26408846 -66.54464538 99.34984076 -68.6875 100.4375 C-70.84263316 101.51806749 -72.99963513 102.59469693 -75.15864563 103.66749573 C-76.50015003 104.33549432 -77.83910433 105.00864331 -79.17521667 105.68736267 C-83.77973626 108 -83.77973626 108 -86 108 C-86.12375 108.94875 -86.2475 109.8975 -86.375 110.875 C-87 114 -87 114 -89 116 C-96.01081917 116.55641422 -96.01081917 116.55641422 -99 114.875 C-100.54402906 111.9799455 -100.59184692 110.22227768 -100 107 C-99.01644531 106.55011719 -98.03289062 106.10023438 -97.01953125 105.63671875 C-95.28337162 104.67244653 -95.28337162 104.67244653 -94 103 C-93.06339392 98.60071875 -93.11541728 94.23471325 -93.125 89.75 C-93.104375 88.52796875 -93.08375 87.3059375 -93.0625 86.046875 C-93.01537025 83.03057091 -92.99556196 80.01659736 -93 77 C-92.34 77 -91.68 77 -91 77 C-90.67 84.92 -90.34 92.84 -90 101 C-85.05 93.41 -80.1 85.82 -75 78 C-78.465 77.505 -78.465 77.505 -82 77 C-82.66 76.34 -83.32 75.68 -84 75 C-82.68 75 -81.36 75 -80 75 C-80 74.34 -80 73.68 -80 73 C-77.36 73.33 -74.72 73.66 -72 74 C-71.44570312 73.14535156 -70.89140625 72.29070312 -70.3203125 71.41015625 C-69.58878657 70.29411027 -68.85700229 69.1782336 -68.125 68.0625 C-67.40570313 66.96035156 -66.68640625 65.85820312 -65.9453125 64.72265625 C-64 62 -64 62 -62 61 C-63.00332648 66.94074887 -64.30912706 71.20186518 -68 76 C-66.12855305 76.82065069 -64.25265664 77.6311584 -62.375 78.4375 C-61.33085937 78.88996094 -60.28671875 79.34242188 -59.2109375 79.80859375 C-56.11314749 80.95801705 -53.26789946 81.57311223 -50 82 C-49.67 81.34 -49.34 80.68 -49 80 C-47.35 80 -45.7 80 -44 80 C-43.83201904 79.46125244 -43.66403809 78.92250488 -43.4909668 78.36743164 C-41.6193403 72.54201766 -39.3457364 67.00329064 -36.8125 61.4375 C-36.44447266 60.61958984 -36.07644531 59.80167969 -35.69726562 58.95898438 C-34.80204987 56.97090782 -33.9015835 54.98519692 -33 53 C-32.34 53.33 -31.68 53.66 -31 54 C-30.505 53.01 -30.505 53.01 -30 52 C-29.34 52.33 -28.68 52.66 -28 53 C-28.32798584 53.73637695 -28.65597168 54.47275391 -28.99389648 55.23144531 C-30.47843689 58.56949008 -31.95801913 61.90970986 -33.4375 65.25 C-33.95376953 66.40886719 -34.47003906 67.56773437 -35.00195312 68.76171875 C-35.49501953 69.87675781 -35.98808594 70.99179688 -36.49609375 72.140625 C-36.95169678 73.16704102 -37.4072998 74.19345703 -37.87670898 75.25097656 C-38.80123547 77.51356474 -39.49868891 79.61565472 -40 82 C-39.04633545 81.5153125 -38.0926709 81.030625 -37.11010742 80.53125 C-33.57409886 78.73611381 -30.03413672 76.94889951 -26.49291992 75.1640625 C-24.96025172 74.39018111 -23.42866701 73.61414997 -21.89819336 72.8359375 C-19.69926151 71.71829564 -17.4965604 70.60842013 -15.29296875 69.5 C-14.60849167 69.15001953 -13.92401459 68.80003906 -13.21879578 68.43945312 C-10.28663213 66.97285259 -8.32496818 66 -5 66 C-5.020625 65.071875 -5.04125 64.14375 -5.0625 63.1875 C-5 60 -5 60 -4 57 C-5.07505434 54.55696099 -6.20479469 52.23548099 -7.4375 49.875 C-10.38690073 43.96550455 -11.82392697 39.70911961 -11 33 C-7.85176932 36.68100818 -6.17948825 40.83782734 -4.3125 45.25 C-3.99216797 45.99507812 -3.67183594 46.74015625 -3.34179688 47.5078125 C-2.55640337 49.33648991 -1.77754662 51.16797236 -1 53 C-0.88402347 49.22942453 -0.81282604 45.45930607 -0.75 41.6875 C-0.71648437 40.61564453 -0.68296875 39.54378906 -0.6484375 38.43945312 C-0.63554687 37.41142578 -0.62265625 36.38339844 -0.609375 35.32421875 C-0.58842773 34.37635498 -0.56748047 33.42849121 -0.54589844 32.4519043 C-0.7645333 29.84060463 -0.7645333 29.84060463 -2.99121094 28.28833008 C-3.98556152 27.65060669 -3.98556152 27.65060669 -5 27 C-5.53125 25.0625 -5.53125 25.0625 -5.5 23 C-5.51546875 21.9790625 -5.51546875 21.9790625 -5.53125 20.9375 C-5 19 -5 19 -3.015625 17.76171875 C-0.58869135 16.01916504 -0.58869135 16.01916504 -0.390625 12.20703125 C-0.32437634 10.74293576 -0.27815468 9.2778231 -0.25 7.8125 C-0.22035156 7.06291016 -0.19070312 6.31332031 -0.16015625 5.54101562 C-0.0895921 3.69458693 -0.04251524 1.84728739 0 0 Z " fill="#4289E4" transform="translate(203,76)"/>
<path d="M0 0 C3.05667975 1.46962949 5.99258907 3.13209777 8.9375 4.8125 C9.72318359 5.25142578 10.50886719 5.69035156 11.31835938 6.14257812 C15.6740809 8.59563301 19.88282316 11.16489749 24 14 C23.64880827 16.83417891 23.21508776 17.81648089 21.00390625 19.703125 C20.19824219 20.21359375 19.39257812 20.7240625 18.5625 21.25 C17.75941406 21.77078125 16.95632812 22.2915625 16.12890625 22.828125 C14 24 14 24 12 24 C12.33 25.65 12.66 27.3 13 29 C13.81984375 28.41089844 14.6396875 27.82179688 15.484375 27.21484375 C16.56203125 26.46332031 17.6396875 25.71179688 18.75 24.9375 C19.81734375 24.18339844 20.8846875 23.42929688 21.984375 22.65234375 C25 21 25 21 29 22 C29 34.54 29 47.08 29 60 C25 61 25 61 21.765625 59.12890625 C20.58452898 58.28621414 19.41286523 57.43017636 18.25 56.5625 C17.64800781 56.12873047 17.04601562 55.69496094 16.42578125 55.24804688 C14.94230599 54.17664807 13.47002848 53.08977545 12 52 C12.16371094 51.16210938 12.32742187 50.32421875 12.49609375 49.4609375 C13.02987283 45.79482693 13.09743025 42.32760615 13.0625 38.625 C13.05347656 37.37976563 13.04445312 36.13453125 13.03515625 34.8515625 C13.02355469 33.91054687 13.01195312 32.96953125 13 32 C12.34 32 11.68 32 11 32 C10.566875 32.928125 10.566875 32.928125 10.125 33.875 C9 36 9 36 7 38 C2.16058232 38.55534301 0.08644286 38.72429524 -4 36 C-6.22229996 32.66655006 -6.73077746 30.86168332 -6.5078125 26.9375 C-5.65875365 23.69801392 -3.53793611 22.03034889 -1 20 C-2.98 19.01 -4.96 18.02 -7 17 C-7 11.39 -7 5.78 -7 0 C-4.15770882 -1.42114559 -3.07375344 -0.90452664 0 0 Z " fill="#EFF3F8" transform="translate(119,58)"/>
<path d="M0 0 C5.84155143 2.27284996 11.49318177 4.95621863 17.17529297 7.59521484 C19.12469834 8.49986001 21.07596237 9.4004079 23.02734375 10.30078125 C24.27094885 10.87735507 25.51444234 11.45416971 26.7578125 12.03125 C27.8833252 12.55267578 29.00883789 13.07410156 30.16845703 13.61132812 C33 15 33 15 36 17 C36 18.32 36 19.64 36 21 C36.66 21 37.32 21 38 21 C37.41117785 30.27394893 35.24113144 39.0146265 33 48 C29.48526102 44.68455035 26.85050249 41.45529298 24.375 37.3125 C22.35593752 33.93673716 21.30837636 32.20558424 18 30 C15.82641491 30.11812822 15.82641491 30.11812822 13.5625 30.75 C12.80066406 30.93046875 12.03882812 31.1109375 11.25390625 31.296875 C8.97473736 31.93718107 8.97473736 31.93718107 6.90234375 33.078125 C5 34 5 34 2 34 C1.67 34.99 1.34 35.98 1 37 C0.71125 36.071875 0.4225 35.14375 0.125 34.1875 C-0.8875 30.90208333 -0.8875 30.90208333 -3 28 C-3.44071805 23.84745662 -3.32415745 19.67336783 -3.3125 15.5 C-3.32861328 14.34628906 -3.34472656 13.19257813 -3.36132812 12.00390625 C-3.36197266 10.89917969 -3.36261719 9.79445313 -3.36328125 8.65625 C-3.36626221 7.64369141 -3.36924316 6.63113281 -3.37231445 5.58789062 C-2.95096838 2.65919008 -2.29834001 1.7836729 0 0 Z " fill="#5F99E2" transform="translate(115,17)"/>
<path d="M0 0 C4.15296248 0.6137336 7.30498558 2.02397418 11.0078125 3.9765625 C12.73644531 4.85828125 12.73644531 4.85828125 14.5 5.7578125 C16.30991469 6.68524719 18.11456297 7.61943587 19.90917969 8.57617188 C27.19006 12.43949612 32.55183741 14.90203769 40.8190918 13.28417969 C43 13 43 13 45.6875 14.625 C47.18514215 17.33501914 47.3389022 18.94988019 47 22 C47.86858643 22.26731934 48.73717285 22.53463867 49.63208008 22.81005859 C52.92867594 23.97480004 55.81451386 25.37780172 58.88671875 27.0390625 C59.99080078 27.61914062 61.09488281 28.19921875 62.23242188 28.796875 C64.52382143 30.00928313 66.80784347 31.23574503 69.08398438 32.4765625 C75.60336882 35.86679376 80.37493899 37.71944552 87.76879883 36.93115234 C90 37 90 37 91.7800293 38.26806641 C93.79473467 41.1282465 93.3614868 43.62612322 93 47 C92.50781982 47.43932861 92.01563965 47.87865723 91.50854492 48.33129883 C89.26060252 50.81789639 89.5658027 52.89680486 89.48828125 56.19921875 C89.43510742 58.01196289 89.43510742 58.01196289 89.38085938 59.86132812 C89.35830078 61.12396484 89.33574219 62.38660156 89.3125 63.6875 C89.27833984 64.96173828 89.24417969 66.23597656 89.20898438 67.54882812 C89.12639216 70.69913103 89.05727665 73.84915157 89 77 C88.67 77 88.34 77 88 77 C87.67 73.37 87.34 69.74 87 66 C86.67 66 86.34 66 86 66 C85.34 61.05 84.68 56.1 84 51 C82.02 50.505 82.02 50.505 80 50 C79.01 50.66 78.02 51.32 77 52 C77 51.01 77 50.02 77 49 C76.34 48.67 75.68 48.34 75 48 C76.32 47.67 77.64 47.34 79 47 C79 45.02 79 43.04 79 41 C78.28448975 40.88897949 77.56897949 40.77795898 76.83178711 40.66357422 C73.78055739 39.94857789 71.45503158 38.85314734 68.69140625 37.3828125 C67.69689453 36.85816406 66.70238281 36.33351562 65.67773438 35.79296875 C64.13569336 34.96732422 64.13569336 34.96732422 62.5625 34.125 C60.52231981 33.04392277 58.48196046 31.96318359 56.44140625 30.8828125 C55.54107666 30.40215332 54.64074707 29.92149414 53.71313477 29.42626953 C50.82839449 27.90978859 47.91935476 26.4485573 45 25 C46.59445928 29.10286705 48.21229864 33.19546342 49.85229492 37.28027344 C50.40664457 38.67060375 50.95456587 40.06351534 51.49584961 41.45898438 C52.27595418 43.46680623 53.07885669 45.46414962 53.88671875 47.4609375 C54.36326904 48.66540527 54.83981934 49.86987305 55.33081055 51.11083984 C57.25757289 54.44582676 58.36786393 55.00058515 62 56 C63.8125 57.1875 63.8125 57.1875 65 59 C65.63316583 64.90954774 65.63316583 64.90954774 63.875 67.9375 C61.05105282 69.53773673 59.19529239 69.44734094 56 69 C53.0625 67.4375 53.0625 67.4375 51 65 C51.11768752 61.58706205 51.47017314 59.05965373 53 56 C52.26864002 53.87276379 51.4286528 51.78259254 50.54296875 49.71484375 C50.27994461 49.09855606 50.01692047 48.48226837 49.7459259 47.8473053 C49.18721398 46.54361663 48.62457567 45.2416048 48.05834961 43.94116211 C47.19136982 41.94640373 46.33999471 39.94550405 45.49023438 37.94335938 C44.94623594 36.67928969 44.40134373 35.4156042 43.85546875 34.15234375 C43.35684326 32.99726318 42.85821777 31.84218262 42.34448242 30.65209961 C41.27473993 27.88922203 41.27473993 27.88922203 39 27 C38.81824219 27.97839844 38.63648438 28.95679687 38.44921875 29.96484375 C37.07608552 37.18415389 35.54812667 44.08365617 33 51 C31.68 50.67 30.36 50.34 29 50 C29.14622803 49.39526855 29.29245605 48.79053711 29.44311523 48.16748047 C30.11008242 45.40383938 30.77381703 42.63943154 31.4375 39.875 C31.66759766 38.92367187 31.89769531 37.97234375 32.13476562 36.9921875 C33.24835719 32.34415313 34.30666853 27.7337804 35 23 C34.34 23 33.68 23 33 23 C32.95447998 22.40453369 32.90895996 21.80906738 32.86206055 21.19555664 C31.55382789 17.86365737 29.40030856 17.35242815 26.20703125 15.87109375 C24.42522461 15.03094727 24.42522461 15.03094727 22.60742188 14.17382812 C21.34263439 13.59464471 20.07765868 13.01587214 18.8125 12.4375 C17.5664333 11.85615331 16.32098239 11.27348477 15.07617188 10.68945312 C12.76851781 9.60972508 10.45800363 8.53607433 8.14379883 7.47045898 C5.0680556 6.03183186 2.03014013 4.5320229 -1 3 C-0.67 2.01 -0.34 1.02 0 0 Z " fill="#68A3EA" transform="translate(118,15)"/>
<path d="M0 0 C3.78472282 3.44869603 6.45287906 7.38053159 9.25 11.625 C9.70890625 12.305625 10.1678125 12.98625 10.640625 13.6875 C14 18.74655878 14 18.74655878 14 21 C15.093125 21.103125 16.18625 21.20625 17.3125 21.3125 C21 22 21 22 22.9375 23.1875 C24.49962298 25.85229803 24.25259862 27.96881658 24 31 C23.67 31.99 23.34 32.98 23 34 C21.98800851 37.13717361 21.98432529 38.87017629 23 42 C24.53761416 44.82588548 26.17302603 47.5805598 27.8203125 50.34375 C29.17064667 53.38423755 29.00803707 53.96196267 28 57 C27.42073684 58.31364143 26.80264743 59.61066221 26.15234375 60.890625 C25.79462891 61.59960938 25.43691406 62.30859375 25.06835938 63.0390625 C24.69517578 63.76867187 24.32199219 64.49828125 23.9375 65.25 C23.56044922 65.99507813 23.18339844 66.74015625 22.79492188 67.5078125 C21.86689327 69.34037531 20.93392821 71.17043676 20 73 C19.34 73 18.68 73 18 73 C17.67 61.12 17.34 49.24 17 37 C16.67 48.88 16.34 60.76 16 73 C15.67 73 15.34 73 15 73 C15 60.46 15 47.92 15 35 C10.23672037 35.95265593 8.1686542 36.94123807 4.25 39.5625 C-0.92354125 43 -0.92354125 43 -2 43 C-2.34375 40.2421875 -2.34375 40.2421875 -2 37 C0.40625 34.8828125 0.40625 34.8828125 3.5 33.125 C4.5209375 32.52945313 5.541875 31.93390625 6.59375 31.3203125 C7.3878125 30.88460937 8.181875 30.44890625 9 30 C8.84152105 28.074382 8.84152105 28.074382 8 26 C6.01254455 24.50134276 6.01254455 24.50134276 3.484375 23.34375 C2.10185547 22.64572266 2.10185547 22.64572266 0.69140625 21.93359375 C-0.27925781 21.46050781 -1.24992187 20.98742187 -2.25 20.5 C-13.86226725 14.74871514 -13.86226725 14.74871514 -18 11 C-17.08630397 7.9391183 -16.58430461 6.36676674 -13.828125 4.63671875 C-9.08938093 2.89199934 -5.14138088 1.45880201 0 2 C0 1.34 0 0.68 0 0 Z " fill="#5092E4" transform="translate(133,45)"/>
<path d="M0 0 C11.52164009 7.29840547 11.52164009 7.29840547 17 11 C16.83757812 11.70125 16.67515625 12.4025 16.5078125 13.125 C15.97473732 16.14302565 15.86718656 18.93713337 15.875 22 C15.87242188 23.010625 15.86984375 24.02125 15.8671875 25.0625 C15.94227097 28.36840291 15.94227097 28.36840291 17 33 C11.72 36.63 6.44 40.26 1 44 C-4.46225134 36.71699822 -5.53416246 30.49238288 -5.4375 21.625 C-5.43355225 20.69977539 -5.42960449 19.77455078 -5.42553711 18.82128906 C-5.28866054 12.33139229 -4.88391502 4.88391502 0 0 Z " fill="#ECF2F8" transform="translate(71,77)"/>
<path d="M0 0 C2 2 2 2 2.1953125 5.9140625 C2.18200376 7.48449351 2.15813602 9.05486221 2.125 10.625 C2.11597656 11.42679688 2.10695312 12.22859375 2.09765625 13.0546875 C2.07406223 15.03658523 2.03819065 17.01832981 2 19 C1.35933594 19.23074219 0.71867187 19.46148437 0.05859375 19.69921875 C-5.64262034 21.84885685 -10.2016964 24.24480588 -15 28 C-16.75027325 26.72954304 -18.50020744 25.45861894 -20.25 24.1875 C-21.22453125 23.47980469 -22.1990625 22.77210937 -23.203125 22.04296875 C-25.48189009 20.37845179 -27.74765822 18.69998177 -30 17 C-26.36662404 8.69773593 -17.96772051 4.42484612 -10 1 C-6.47940432 -0.17353189 -3.693507 -0.20146402 0 0 Z " fill="#EDF3F9" transform="translate(105,56)"/>
<path d="M0 0 C3 1 3 1 4.47387695 3.62036133 C7.38305736 10.27025155 7.38305736 10.27025155 8.46313477 12.81860352 C9.30836064 14.8027828 10.18112094 16.77317464 11.05664062 18.74414062 C11.59807447 20.00186499 12.13784436 21.26030724 12.67578125 22.51953125 C13.16989502 23.66526611 13.66400879 24.81100098 14.1730957 25.99145508 C15 29 15 29 14.15698242 31.2487793 C13.77517822 31.82668213 13.39337402 32.40458496 13 33 C12.80894011 35.54746524 12.78382476 37.43162913 13.6953125 39.828125 C14.14577645 43.03912447 12.78840257 44.5730899 11.0625 47.25 C10.49660156 48.14203125 9.93070313 49.0340625 9.34765625 49.953125 C8.90292969 50.62859375 8.45820313 51.3040625 8 52 C3.39907357 47.69978772 0.2614051 42.88443088 -2 37 C-1.98450294 34.47785281 -1.66917547 32.47790123 -0.94140625 30.0703125 C-0.96074219 29.38710937 -0.98007813 28.70390625 -1 28 C-2.28583984 26.96552734 -2.28583984 26.96552734 -3.59765625 25.91015625 C-6 23 -6 23 -5.9621582 20.66699219 C-5.39828259 17.83029195 -4.68096404 15.090063 -3.875 12.3125 C-3.62234375 11.35021484 -3.3696875 10.38792969 -3.109375 9.39648438 C-1.29352679 2.58705357 -1.29352679 2.58705357 0 0 Z " fill="#EEF3F9" transform="translate(157,42)"/>
<path d="M0 0 C0.8353125 0.59748047 0.8353125 0.59748047 1.6875 1.20703125 C6.66497307 4.66267556 11.24104992 7.1152527 17 9 C17.05380578 11.79192205 17.09357669 14.5828141 17.125 17.375 C17.14175781 18.1690625 17.15851563 18.963125 17.17578125 19.78125 C17.19335473 21.85492015 17.10335168 23.92883241 17 26 C15 28 15 28 11.8046875 28.3125 C1.39858794 27.45778956 -7.91237085 20.21888154 -15 13 C-13.48922551 8.60868215 -10.08337724 6.68263208 -6.375 4.25 C-5.45847656 3.63318359 -5.45847656 3.63318359 -4.5234375 3.00390625 C-3.02104672 1.99448744 -1.51123091 0.9961353 0 0 Z " fill="#ECF2F9" transform="translate(90,114)"/>
<path d="M0 0 C3.078125 1.8125 3.078125 1.8125 6.25 4 C7.30703125 4.721875 8.3640625 5.44375 9.453125 6.1875 C12 8 12 8 13 9 C13.04063832 10.66617115 13.042721 12.33388095 13 14 C8.48187768 16.28373583 3.9611797 18.56225804 -0.56201172 20.8359375 C-2.1011475 21.61054162 -3.639563 22.38657862 -5.17724609 23.1640625 C-7.38452451 24.27979833 -9.59432154 25.3903961 -11.8046875 26.5 C-12.49432587 26.84998047 -13.18396423 27.19996094 -13.89450073 27.56054688 C-18.77225659 30 -18.77225659 30 -21 30 C-20.10890849 23.57799568 -17.79522594 18.17169619 -15.25 12.25 C-14.81945312 11.19683594 -14.38890625 10.14367187 -13.9453125 9.05859375 C-13.51476562 8.05441406 -13.08421875 7.05023438 -12.640625 6.015625 C-12.25422852 5.10071289 -11.86783203 4.18580078 -11.46972656 3.24316406 C-8.62128505 -1.10425796 -4.68914386 -1.59146701 0 0 Z " fill="#ECF2F8" transform="translate(184,128)"/>
<path d="M0 0 C5.63446832 1.64415633 10.66750028 4.22095482 15.875 6.875 C16.73480469 7.30941406 17.59460938 7.74382813 18.48046875 8.19140625 C20.17492302 9.04763276 21.86862929 9.90534144 23.56152344 10.76464844 C27.03403081 12.52384821 30.51665665 14.26236933 34 16 C34.328125 18.76953125 34.328125 18.76953125 34 22 C31.734375 24.01171875 31.734375 24.01171875 28.75 25.6875 C24.66450371 28.0007478 24.66450371 28.0007478 20.859375 30.7265625 C19 32 19 32 15.5 31.6875 C11.55765799 29.78672796 11.55765799 29.78672796 10.046875 26.5078125 C9.54607422 25.43358032 9.54607422 25.43358032 9.03515625 24.33764648 C8.69355469 23.56622314 8.35195312 22.7947998 8 22 C7.64808594 21.21246338 7.29617187 20.42492676 6.93359375 19.61352539 C5.85020028 17.14708167 4.79641799 14.669836 3.75 12.1875 C3.38648438 11.34251953 3.02296875 10.49753906 2.6484375 9.62695312 C2.30554688 8.81548828 1.96265625 8.00402344 1.609375 7.16796875 C1.29967773 6.43860107 0.98998047 5.7092334 0.67089844 4.95776367 C0 3 0 3 0 0 Z " fill="#EFF3F9" transform="translate(163,40)"/>
<path d="M0 0 C2.74535396 1.4636375 5.33114441 3.01055567 7.90625 4.7578125 C8.78925781 5.34304687 9.67226562 5.92828125 10.58203125 6.53125 C11.57783203 7.44777344 11.57783203 7.44777344 12.59375 8.3828125 C12.59375 9.7028125 12.59375 11.0228125 12.59375 12.3828125 C11.91272217 12.73585449 11.23169434 13.08889648 10.5300293 13.45263672 C7.44616996 15.05257125 4.36369754 16.65515982 1.28125 18.2578125 C0.20939453 18.81339844 -0.86246094 19.36898437 -1.96679688 19.94140625 C-3.50883789 20.74384766 -3.50883789 20.74384766 -5.08203125 21.5625 C-6.02989502 22.05476074 -6.97775879 22.54702148 -7.9543457 23.05419922 C-10.54786564 24.41128737 -10.54786564 24.41128737 -13.40625 26.3828125 C-15.05625 26.0528125 -16.70625 25.7228125 -18.40625 25.3828125 C-18.40625 19.4428125 -18.40625 13.5028125 -18.40625 7.3828125 C-15.76625 6.7228125 -13.12625 6.0628125 -10.40625 5.3828125 C-8.16684355 3.88244731 -6.34417412 2.24793864 -4.36328125 0.4296875 C-2.40625 -0.6171875 -2.40625 -0.6171875 0 0 Z " fill="#EEF3F8" transform="translate(130.40625,114.6171875)"/>
<path d="M0 0 C-0.57701951 4.40372102 -1.68896956 8.00758729 -3.50390625 12.0546875 C-3.99697266 13.16328125 -4.49003906 14.271875 -4.99804688 15.4140625 C-5.51431641 16.55617187 -6.03058594 17.69828125 -6.5625 18.875 C-7.08263672 20.0403125 -7.60277344 21.205625 -8.13867188 22.40625 C-9.41960857 25.27366792 -10.70688525 28.13805848 -12 31 C-12.66 31 -13.32 31 -14 31 C-15.68366995 27.94655708 -17.34381222 24.88092357 -19 21.8125 C-19.47695312 20.94818359 -19.95390625 20.08386719 -20.4453125 19.19335938 C-20.89648438 18.35224609 -21.34765625 17.51113281 -21.8125 16.64453125 C-22.23144531 15.87471924 -22.65039062 15.10490723 -23.08203125 14.31176758 C-24.11210918 11.71766973 -24.17114843 9.76618651 -24 7 C-22.9275 6.773125 -21.855 6.54625 -20.75 6.3125 C-16.89400228 5.35131411 -16.89400228 5.35131411 -15.0625 2.4375 C-12.80203762 -0.23395554 -12.34669472 -0.41545783 -9.0625 -0.875 C-5.88847502 -1.09451201 -3.0828094 -0.86704014 0 0 Z " fill="#EEF3F9" transform="translate(171,125)"/>
<path d="M0 0 C0.33 0 0.66 0 1 0 C1 1.65 1 3.3 1 5 C1.86858643 5.26731934 2.73717285 5.53463867 3.63208008 5.81005859 C6.92867594 6.97480004 9.81451386 8.37780172 12.88671875 10.0390625 C13.99080078 10.61914062 15.09488281 11.19921875 16.23242188 11.796875 C18.52382143 13.00928313 20.80784347 14.23574503 23.08398438 15.4765625 C29.60336882 18.86679376 34.37493899 20.71944552 41.76879883 19.93115234 C44 20 44 20 45.7800293 21.26806641 C47.79473467 24.1282465 47.3614868 26.62612322 47 30 C46.50781982 30.43932861 46.01563965 30.87865723 45.50854492 31.33129883 C43.26060252 33.81789639 43.5658027 35.89680486 43.48828125 39.19921875 C43.45283203 40.40771484 43.41738281 41.61621094 43.38085938 42.86132812 C43.35830078 44.12396484 43.33574219 45.38660156 43.3125 46.6875 C43.27833984 47.96173828 43.24417969 49.23597656 43.20898438 50.54882812 C43.12639216 53.69913103 43.05727665 56.84915157 43 60 C42.67 60 42.34 60 42 60 C41.67 56.37 41.34 52.74 41 49 C40.67 49 40.34 49 40 49 C39.01 41.575 39.01 41.575 38 34 C36.68 33.67 35.36 33.34 34 33 C33.01 33.66 32.02 34.32 31 35 C31 34.01 31 33.02 31 32 C30.34 31.67 29.68 31.34 29 31 C30.32 30.67 31.64 30.34 33 30 C33 28.02 33 26.04 33 24 C32.28448975 23.88897949 31.56897949 23.77795898 30.83178711 23.66357422 C27.78055739 22.94857789 25.45503158 21.85314734 22.69140625 20.3828125 C21.69689453 19.85816406 20.70238281 19.33351563 19.67773438 18.79296875 C18.64970703 18.24253906 17.62167969 17.69210938 16.5625 17.125 C14.52231981 16.04392277 12.48196046 14.96318359 10.44140625 13.8828125 C9.49410645 13.37911133 8.54680664 12.87541016 7.57080078 12.35644531 C4.7340792 10.85969079 1.87938621 9.41252909 -1 8 C-0.67 5.36 -0.34 2.72 0 0 Z " fill="#65A5F1" transform="translate(164,32)"/>
<path d="M0 0 C3.1977903 2.97788495 4.91262062 6.18513423 7 10 C7.66 9.67 8.32 9.34 9 9 C12.85901066 9.91212979 15.68661742 10.79107828 19 13 C19.50698802 16.91105046 19.59085036 19.11372447 17.375 22.4375 C14.397402 24.39644605 12.49644963 24.31785906 9 24 C8.34 25.32 7.68 26.64 7 28 C6.67 25.69 6.34 23.38 6 21 C-0.435 21.495 -0.435 21.495 -7 22 C-9.43207958 16.26297793 -9.43207958 16.26297793 -8.32128906 13.01611328 C-7.18160292 10.95379987 -5.94868101 9.01167767 -4.625 7.0625 C-4.18671875 6.37865234 -3.7484375 5.69480469 -3.296875 4.99023438 C-2.21820019 3.31359853 -1.11176998 1.65487601 0 0 Z " fill="#408BE9" transform="translate(164,104)"/>
<path d="M0 0 C11.74562503 5.51533697 23.42255201 11.13941598 35 17 C33.31764342 20.36471316 29.49819949 20.89891532 26.125 22.125 C25.39152344 22.40214844 24.65804687 22.67929687 23.90234375 22.96484375 C20.81741671 24.10553626 18.31479633 25 15 25 C13.23550392 22.50877078 11.66529046 20.06246948 10.125 17.4375 C9.27573121 16.01815628 8.42417888 14.60017635 7.5703125 13.18359375 C7.15168945 12.4860498 6.73306641 11.78850586 6.30175781 11.06982422 C5.00657816 9.01045941 3.62115849 7.05669558 2.1796875 5.09765625 C0 2 0 2 0 0 Z " fill="#EEF3F8" transform="translate(116,17)"/>
<path d="M0 0 C4.28379643 0.71260094 8.25093853 2.06921736 12.3125 3.5625 C12.95767578 3.79646484 13.60285156 4.03042969 14.26757812 4.27148438 C15.84621219 4.84447007 17.42327026 5.42179464 19 6 C19 6.99 19 7.98 19 9 C15.28391522 10.79845167 11.56684027 12.59483924 7.84887695 14.3894043 C6.58689121 14.99887781 5.32516697 15.60889312 4.0637207 16.21948242 C2.23979798 17.10221194 0.41491157 17.98292213 -1.41015625 18.86328125 C-2.50465088 19.39219971 -3.59914551 19.92111816 -4.72680664 20.46606445 C-8.12285113 22.05757243 -11.54525987 23.54124697 -15 25 C-13.73004382 21.5745344 -12.2662578 18.66399777 -10.21484375 15.64453125 C-9.68439453 14.85755859 -9.15394531 14.07058594 -8.60742188 13.25976562 C-8.05634766 12.45216797 -7.50527344 11.64457031 -6.9375 10.8125 C-5.84152644 9.19463426 -4.74643074 7.57617339 -3.65234375 5.95703125 C-2.92519165 4.88932495 -2.92519165 4.88932495 -2.18334961 3.80004883 C-0.95584097 2.00971373 -0.95584097 2.00971373 0 0 Z " fill="#EBF2F8" transform="translate(131,156)"/>
<path d="M0 0 C1.32 0 2.64 0 4 0 C5.06577442 2.02918632 6.10180187 4.07401541 7.125 6.125 C7.70507812 7.26195313 8.28515625 8.39890625 8.8828125 9.5703125 C10.5242039 14.60926932 8.85233421 17.16619004 6.7109375 21.7734375 C6.27007812 22.63195312 5.82921875 23.49046875 5.375 24.375 C4.92898437 25.24898437 4.48296875 26.12296875 4.0234375 27.0234375 C3.68570313 27.67570312 3.34796875 28.32796875 3 29 C-0.99055234 27.51332364 -2.30752215 25.36412191 -4.3125 21.6875 C-4.84488281 20.74261719 -5.37726563 19.79773438 -5.92578125 18.82421875 C-7.17616203 15.536854 -7.12864104 14.29357978 -6 11 C-5.04085627 9.03123129 -4.0166077 7.09315829 -2.9375 5.1875 C-2.11572266 3.72376953 -2.11572266 3.72376953 -1.27734375 2.23046875 C-0.85582031 1.49441406 -0.43429688 0.75835937 0 0 Z " fill="#EDF2F9" transform="translate(174,85)"/>
<path d="M0 0 C6.78384798 -0.64608076 6.78384798 -0.64608076 10 1.0625 C11.60856522 4.17909511 11.42213381 6.56262469 11 10 C9.3125 12.4375 9.3125 12.4375 7 14 C4.26506492 14.3506327 2.39868159 14.1290639 -0.21948242 13.28149414 C-4.0981207 12.88882842 -6.71668113 14.42100406 -10.05078125 16.18359375 C-10.70958786 16.51794937 -11.36839447 16.85230499 -12.04716492 17.1967926 C-14.14256701 18.26403042 -16.22737177 19.35034899 -18.3125 20.4375 C-19.73436979 21.16599584 -21.1568896 21.89322445 -22.58007812 22.61914062 C-26.06108921 24.39816295 -29.53272672 26.19435928 -33 28 C-33.66 26.68 -34.32 25.36 -35 24 C-30.7863155 21.85609557 -26.56875995 19.72008435 -22.34741211 17.59130859 C-20.91174786 16.86593059 -19.47716773 16.13840278 -18.04370117 15.40869141 C-15.98376805 14.36054267 -13.9200674 13.32017222 -11.85546875 12.28125 C-11.21473923 11.95314331 -10.5740097 11.62503662 -9.91386414 11.2869873 C-7.06740706 9.86322163 -5.22961823 9 -2 9 C-2.04125 8.071875 -2.0825 7.14375 -2.125 6.1875 C-2 3 -2 3 0 0 Z " fill="#448BE5" transform="translate(200,133)"/>
<path d="M0 0 C1.87109375 0.37890625 1.87109375 0.37890625 3.80859375 1.94140625 C5.16834507 5.06083575 5.54673291 8.0055535 5.87109375 11.37890625 C4.88109375 11.37890625 3.89109375 11.37890625 2.87109375 11.37890625 C2.54109375 12.36890625 2.21109375 13.35890625 1.87109375 14.37890625 C1.21109375 14.37890625 0.55109375 14.37890625 -0.12890625 14.37890625 C-0.12890625 22.62890625 -0.12890625 30.87890625 -0.12890625 39.37890625 C-1.44890625 39.37890625 -2.76890625 39.37890625 -4.12890625 39.37890625 C-4.12890625 30.79890625 -4.12890625 22.21890625 -4.12890625 13.37890625 C-5.44890625 12.71890625 -6.76890625 12.05890625 -8.12890625 11.37890625 C-9.1276716 7.78335099 -9.54523266 5.46135491 -8.19140625 1.94140625 C-5.43185908 -0.14915979 -3.40152191 -0.19348106 0 0 Z " fill="#4990EA" transform="translate(112.12890625,5.62109375)"/>
<path d="M0 0 C-0.64656856 8.89031769 -2.87022567 17.37193748 -5 26 C-8.45871991 22.71421609 -11.21190517 19.47486766 -13.75 15.4375 C-14.34296875 14.50808594 -14.9359375 13.57867187 -15.546875 12.62109375 C-16.81308671 10.33714736 -17.54432475 8.54818395 -18 6 C-14.66666667 4.66666667 -11.33333333 3.33333333 -8 2 C-7.12730469 1.62617187 -6.25460938 1.25234375 -5.35546875 0.8671875 C-3 0 -3 0 0 0 Z " fill="#EDF3F8" transform="translate(153,39)"/>
<path d="M0 0 C0.33 0 0.66 0 1 0 C1 8.58 1 17.16 1 26 C3.99332739 25.0022242 4.94766315 24.2477975 7 22 C7 23.65 7 25.3 7 27 C7.65226562 26.6390625 8.30453125 26.278125 8.9765625 25.90625 C17.6572935 21.2970123 17.6572935 21.2970123 23 22 C21.68 22.33 20.36 22.66 19 23 C19 23.99 19 24.98 19 26 C17.37750059 26.83819158 15.75191503 27.6704116 14.125 28.5 C13.22007813 28.9640625 12.31515625 29.428125 11.3828125 29.90625 C9 31 9 31 7 31 C6.87625 31.94875 6.7525 32.8975 6.625 33.875 C6 37 6 37 4 39 C-3.01081917 39.55641422 -3.01081917 39.55641422 -6 37.875 C-7.54402906 34.9799455 -7.59184692 33.22227768 -7 30 C-6.01644531 29.55011719 -5.03289062 29.10023438 -4.01953125 28.63671875 C-2.28337162 27.67244653 -2.28337162 27.67244653 -1 26 C-0.06339392 21.60071875 -0.11541728 17.23471325 -0.125 12.75 C-0.104375 11.52796875 -0.08375 10.3059375 -0.0625 9.046875 C-0.01537025 6.03057091 0.00443804 3.01659736 0 0 Z " fill="#2A7AE4" transform="translate(110,153)"/>
<path d="M0 0 C2.69960337 2.58390608 4.93940681 5.15320664 7.015625 8.2578125 C7.54414062 9.04800781 8.07265625 9.83820312 8.6171875 10.65234375 C9.15601562 11.46832031 9.69484375 12.28429688 10.25 13.125 C10.80429688 13.94871094 11.35859375 14.77242187 11.9296875 15.62109375 C12.45304687 16.40871094 12.97640625 17.19632813 13.515625 18.0078125 C13.99290039 18.72598145 14.47017578 19.44415039 14.96191406 20.18408203 C16 22 16 22 16 24 C6.625 27.6875 6.625 27.6875 1 26 C0 25 0 25 -0.11352539 22.59155273 C-0.10828857 21.54942627 -0.10305176 20.5072998 -0.09765625 19.43359375 C-0.09443359 18.30888672 -0.09121094 17.18417969 -0.08789062 16.02539062 C-0.07951172 14.84138672 -0.07113281 13.65738281 -0.0625 12.4375 C-0.05798828 11.24962891 -0.05347656 10.06175781 -0.04882812 8.83789062 C-0.03699675 5.89187774 -0.02051287 2.94596319 0 0 Z " fill="#EEF4F9" transform="translate(112,20)"/>
<path d="M0 0 C3.46465503 0.79953578 6.84463515 1.72839055 10.25 2.75 C8.94330806 6.30481476 7.38581025 9.27363503 5.24609375 12.39453125 C4.67052734 13.23564453 4.09496094 14.07675781 3.50195312 14.94335938 C2.90318359 15.80767578 2.30441406 16.67199219 1.6875 17.5625 C1.08486328 18.44615234 0.48222656 19.32980469 -0.13867188 20.24023438 C-3.44838897 25.05065372 -3.44838897 25.05065372 -4.75 26.75 C-5.08 26.75 -5.41 26.75 -5.75 26.75 C-5.83676908 22.62513162 -5.89031295 18.50049616 -5.9375 14.375 C-5.96263672 13.199375 -5.98777344 12.02375 -6.01367188 10.8125 C-6.02333984 9.69101563 -6.03300781 8.56953125 -6.04296875 7.4140625 C-6.0586792 6.37717285 -6.07438965 5.3402832 -6.09057617 4.27197266 C-5.97818604 3.43972168 -5.8657959 2.6074707 -5.75 1.75 C-2.75 -0.25 -2.75 -0.25 0 0 Z " fill="#EDF3F9" transform="translate(117.75,151.25)"/>
<path d="M0 0 C2.33285378 2.13900633 3.7868759 4.16655353 5.1875 7 C5.53167969 7.680625 5.87585938 8.36125 6.23046875 9.0625 C7 11 7 11 7 14 C7.61875 14.04125 8.2375 14.0825 8.875 14.125 C9.926875 14.558125 9.926875 14.558125 11 15 C11.70164642 16.98799818 12.36156567 18.9908096 13 21 C14.0059248 23.14215073 15.04794389 25.2677163 16.125 27.375 C16.66382813 28.43460938 17.20265625 29.49421875 17.7578125 30.5859375 C18.16773438 31.38257812 18.57765625 32.17921875 19 33 C18.34 33 17.68 33 17 33 C16.34 33.66 15.68 34.32 15 35 C13.02 31.37 11.04 27.74 9 24 C5.78119883 27.7935871 3.3836813 31.65829477 1 36 C0.67 35.34 0.34 34.68 0 34 C-0.66 34 -1.32 34 -2 34 C-0.4885614 29.74049122 1.68979757 26.09632389 4.07421875 22.28125 C5.28606692 19.2950925 4.99197343 18.06081893 4 15 C2.86128803 12.51777175 1.69543085 10.10621457 0.4375 7.6875 C0.10814453 7.04232422 -0.22121094 6.39714844 -0.56054688 5.73242188 C-1.36824255 4.15214772 -2.18337613 2.57567895 -3 1 C-2.01 0.67 -1.02 0.34 0 0 Z " fill="#5593E1" transform="translate(156,81)"/>
<path d="M0 0 C2.25870983 2.5958307 4.01964594 5.44515571 5.8125 8.375 C6.56563477 9.54675781 6.56563477 9.54675781 7.33398438 10.7421875 C11 16.56791029 11 16.56791029 11 20 C2.42 15.38 -6.16 10.76 -15 6 C-15 5.01 -15 4.02 -15 3 C-13.4447088 2.29634398 -11.88035173 1.61270622 -10.3125 0.9375 C-9.44238281 0.55464844 -8.57226562 0.17179687 -7.67578125 -0.22265625 C-4.38817718 -1.17774123 -3.14739726 -1.4231287 0 0 Z " fill="#EAF1F8" transform="translate(132,48)"/>
<path d="M0 0 C0 3.49336818 -0.69545146 4.39644434 -2.625 7.23046875 C-3.16640625 8.03291016 -3.7078125 8.83535156 -4.265625 9.66210938 C-4.83796875 10.49548828 -5.4103125 11.32886719 -6 12.1875 C-6.57234375 13.03248047 -7.1446875 13.87746094 -7.734375 14.74804688 C-9.15013971 16.83629982 -10.57218082 18.91997883 -12 21 C-17.06081162 20.25320402 -21.26474281 18.8777744 -26 17 C-24.50824817 12.93439658 -22.31245533 11.74339754 -18.5546875 9.765625 C-16.94013672 8.90517578 -16.94013672 8.90517578 -15.29296875 8.02734375 C-14.16503906 7.44082031 -13.03710938 6.85429687 -11.875 6.25 C-10.73933594 5.64800781 -9.60367188 5.04601562 -8.43359375 4.42578125 C-5.62760514 2.94025787 -2.81645915 1.46554677 0 0 Z " fill="#E7F0F8" transform="translate(143,130)"/>
<path d="M0 0 C3.33009036 3.01155997 5.26272685 5.98530676 7.25 10 C7.77078125 11.03125 8.2915625 12.0625 8.828125 13.125 C10 16 10 16 10 20 C3.28460827 18.70024676 -2.72019113 16.70071112 -9 14 C-6.34151874 8.99900452 -3.74123976 4.2954975 0 0 Z " fill="#E8F0F7" transform="translate(143,139)"/>
<path d="M0 0 C2.5794689 3.43929187 4.67003982 6.75263372 6.75 10.5 C7.70132813 12.18609375 7.70132813 12.18609375 8.671875 13.90625 C10.11061012 17.25765651 10.11739515 17.74272088 9 21 C8.42424958 22.24334239 7.80627377 23.46781338 7.15234375 24.671875 C6.61577148 25.66767578 6.61577148 25.66767578 6.06835938 26.68359375 C5.69517578 27.36550781 5.32199219 28.04742187 4.9375 28.75 C4.56044922 29.44738281 4.18339844 30.14476563 3.79492188 30.86328125 C2.86726612 32.57768302 1.93416546 34.28913661 1 36 C0.67 36 0.34 36 0 36 C0 24.12 0 12.24 0 0 Z " fill="#ECF4F9" transform="translate(152,81)"/>
<path d="M0 0 C0.33 0 0.66 0 1 0 C1 1.65 1 3.3 1 5 C1.86278564 5.26876953 2.72557129 5.53753906 3.61450195 5.81445312 C6.95846987 6.98545682 10.0031826 8.38009756 13.16796875 9.96875 C14.30814453 10.53980469 15.44832031 11.11085938 16.62304688 11.69921875 C17.79931641 12.29347656 18.97558594 12.88773438 20.1875 13.5 C21.38720818 14.10058335 22.58707665 14.70084662 23.78710938 15.30078125 C32.57798999 19.71865999 32.57798999 19.71865999 36 22 C35.67 22.66 35.34 23.32 35 24 C35.061875 25.299375 35.12375 26.59875 35.1875 27.9375 C35.23046875 30.08984375 35.23046875 30.08984375 35 32 C33 34 33 34 31 35 C31 34.01 31 33.02 31 32 C30.34 31.67 29.68 31.34 29 31 C30.32 30.67 31.64 30.34 33 30 C33 28.02 33 26.04 33 24 C32.28448975 23.88897949 31.56897949 23.77795898 30.83178711 23.66357422 C27.78055739 22.94857789 25.45503158 21.85314734 22.69140625 20.3828125 C21.69689453 19.85816406 20.70238281 19.33351563 19.67773438 18.79296875 C18.64970703 18.24253906 17.62167969 17.69210938 16.5625 17.125 C14.52231981 16.04392277 12.48196046 14.96318359 10.44140625 13.8828125 C9.49410645 13.37911133 8.54680664 12.87541016 7.57080078 12.35644531 C4.7340792 10.85969079 1.87938621 9.41252909 -1 8 C-0.67 5.36 -0.34 2.72 0 0 Z " fill="#8FBCEE" transform="translate(164,32)"/>
<path d="M0 0 C3.18274197 3.11566225 5.02488548 5.97923116 7 10 C6.79648549 12.51001226 6.11678364 13.76643272 5 16 C0.55499776 17.33350067 -3.3318831 18.29175731 -8 18 C-9 15 -9 15 -8.28735352 13.2824707 C-7.90506592 12.66976318 -7.52277832 12.05705566 -7.12890625 11.42578125 C-6.71962891 10.75869141 -6.31035156 10.09160156 -5.88867188 9.40429688 C-5.45103516 8.71400391 -5.01339844 8.02371094 -4.5625 7.3125 C-4.12873047 6.61060547 -3.69496094 5.90871094 -3.24804688 5.18554688 C-2.17449413 3.45134628 -1.08841346 1.72491256 0 0 Z " fill="#ECF2F8" transform="translate(164,104)"/>
<path d="M0 0 C2.50041894 0.08168338 3.83455801 0.19140582 6.0625 1.375 C7.64683618 4.44465135 7.42498449 6.92931143 7.0625 10.3125 C5.9375 12.25 5.9375 12.25 4.0625 13.3125 C0.30665679 13.88404136 -1.50862478 13.54062511 -4.875 11.75 C-6.9375 9.3125 -6.9375 9.3125 -6.875 5.6875 C-5.54429649 0.89696736 -5.02052755 0.39845457 0 0 Z " fill="#5599ED" transform="translate(175.9375,70.6875)"/>
<path d="M0 0 C0.33 0 0.66 0 1 0 C1 8.58 1 17.16 1 26 C-3 27 -3 27 -4.703125 26.00390625 C-6.8515625 24.00195312 -6.8515625 24.00195312 -9 22 C-7.45173401 17.04242102 -5.48219062 12.36189599 -3.375 7.625 C-2.88773438 6.52091797 -2.88773438 6.52091797 -2.390625 5.39453125 C-1.59615497 3.59529031 -0.79841229 1.79749504 0 0 Z " fill="#E6EFF9" transform="translate(202,66)"/>
<path d="M0 0 C0 8.25 0 16.5 0 25 C-2.82862285 21.22850286 -4.79675729 17.71138944 -6.8125 13.5 C-7.14958984 12.83613281 -7.48667969 12.17226562 -7.83398438 11.48828125 C-10.17287071 6.59566307 -10.17287071 6.59566307 -9.31640625 3.64453125 C-6.19122263 -0.25962988 -5.05854257 -1.26463564 0 0 Z " fill="#E6EFF8" transform="translate(203,106)"/>
<path d="M0 0 C2.44787699 2.20400382 3.73898358 4.2163391 5.04296875 7.23046875 C5.39423828 8.03291016 5.74550781 8.83535156 6.10742188 9.66210938 C6.46384766 10.49548828 6.82027344 11.32886719 7.1875 12.1875 C7.55552734 13.03248047 7.92355469 13.87746094 8.30273438 14.74804688 C9.2081722 16.82937797 10.10697791 18.91331882 11 21 C7.47461621 19.26058894 4.10134833 17.37268877 0.75 15.3125 C-0.32765625 14.66925781 -1.4053125 14.02601562 -2.515625 13.36328125 C-5 11 -5 11 -5.515625 7.3828125 C-5 4 -5 4 -2.5 1.5625 C-1.2625 0.7890625 -1.2625 0.7890625 0 0 Z " fill="#EAF1F8" transform="translate(189,113)"/>
<path d="M0 0 C0.66 0.33 1.32 0.66 2 1 C-0.97 7.27 -3.94 13.54 -7 20 C-10 20 -10 20 -12.1875 18.9375 C-14 17 -14 17 -14.55078125 13.71875 C-13.96411333 9.75770134 -13.86520491 9.41931554 -10.9375 7.12890625 C-9.6411111 6.24921378 -8.32767644 5.39422009 -7 4.5625 C-6.33226562 4.11712891 -5.66453125 3.67175781 -4.9765625 3.21289062 C-3.33185092 2.12033222 -1.6676699 1.0571836 0 0 Z " fill="#EDF3F9" transform="translate(198,64)"/>
<path d="M0 0 C4.16634011 0.63388234 7.50554991 2.03604242 11.2890625 3.87109375 C12.47757813 4.44537109 13.66609375 5.01964844 14.890625 5.61132812 C15.50357422 5.91111572 16.11652344 6.21090332 16.74804688 6.51977539 C18.623361 7.43669862 20.50265458 8.34501011 22.3828125 9.25195312 C31.55567089 13.70378059 31.55567089 13.70378059 35 16 C34.01 16.495 34.01 16.495 33 17 C32.67 17.66 32.34 18.32 32 19 C28.26436344 17.20412391 24.52902281 15.40763414 20.79394531 13.6105957 C19.52547016 13.00040429 18.25691682 12.39037539 16.98828125 11.78051758 C15.15603976 10.89968765 13.32408806 10.01825746 11.4921875 9.13671875 C10.39245605 8.60780029 9.29272461 8.07888184 8.15966797 7.53393555 C5.09441395 6.04583548 2.0444095 4.53022691 -1 3 C-0.67 2.01 -0.34 1.02 0 0 Z " fill="#70A6E7" transform="translate(118,15)"/>
<path d="M0 0 C0.99 0 1.98 0 3 0 C4.38671875 1.6796875 4.38671875 1.6796875 5.6875 3.875 C6.12449219 4.59429687 6.56148437 5.31359375 7.01171875 6.0546875 C8 8 8 8 8 10 C17.9 6.535 17.9 6.535 28 3 C28 3.99 28 4.98 28 6 C28.66 6.33 29.32 6.66 30 7 C28.19402344 7.61488281 28.19402344 7.61488281 26.3515625 8.2421875 C24.77593644 8.78615364 23.20042132 9.33044118 21.625 9.875 C20.8309375 10.14441406 20.036875 10.41382813 19.21875 10.69140625 C18.45820313 10.95566406 17.69765625 11.21992187 16.9140625 11.4921875 C16.2123291 11.73308105 15.5105957 11.97397461 14.78759766 12.22216797 C12.79749359 12.95833638 12.79749359 12.95833638 11 15 C8.375 15.125 8.375 15.125 6 15 C5.938125 13.783125 5.87625 12.56625 5.8125 11.3125 C5.28684155 6.81254505 3.41107948 4.97376159 0 2 C0 1.34 0 0.68 0 0 Z " fill="#659FE6" transform="translate(123,32)"/>
<path d="M0 0 C8.24895995 0.34586834 8.24895995 0.34586834 10.9375 2.6875 C12.18676533 5.40648924 13.15240227 8.13120767 14 11 C13.34 11 12.68 11 12 11 C11.67 11.99 11.34 12.98 11 14 C10.32880451 12.5437455 9.66318193 11.08492133 9 9.625 C8.62875 8.81289062 8.2575 8.00078125 7.875 7.1640625 C7 5 7 5 7 3 C5.09161098 3.07765459 5.09161098 3.07765459 3 4 C1.20337343 6.52586626 1.20337343 6.52586626 -0.25 9.5625 C-0.77078125 10.57441406 -1.2915625 11.58632812 -1.828125 12.62890625 C-2.21484375 13.41136719 -2.6015625 14.19382812 -3 15 C-5.475 14.01 -5.475 14.01 -8 13 C-7 11 -7 11 -5.125 8.75 C-2.96718777 5.95753712 -1.48462277 3.19193896 0 0 Z " fill="#679FE3" transform="translate(171,82)"/>
<path d="M0 0 C0.33 0.66 0.66 1.32 1 2 C1.99 2 2.98 2 4 2 C2.47505001 10.20877337 0.89530291 18.14132068 -2 26 C-3.32 25.67 -4.64 25.34 -6 25 C-4.02 16.75 -2.04 8.5 0 0 Z " fill="#ADCBED" transform="translate(153,40)"/>
<path d="M0 0 C3 0 3 0 5 1 C4.67 9.25 4.34 17.5 4 26 C2.68 26 1.36 26 0 26 C0 17.42 0 8.84 0 0 Z " fill="#5B96E3" transform="translate(108,19)"/>
<path d="M0 0 C2.91517292 1.07401108 4.77810176 1.77810176 7 4 C7.125 7.125 7.125 7.125 7 10 C4.69 11.32 2.38 12.64 0 14 C-2.39775683 10.21892192 -3.13229952 8.67252256 -2.25 4.1875 C-1 1 -1 1 0 0 Z " fill="#EAF1F8" transform="translate(191,92)"/>
<path d="M0 0 C0.33 0 0.66 0 1 0 C1.04382813 1.06734375 1.08765625 2.1346875 1.1328125 3.234375 C1.64981914 7.14086513 1.64981914 7.14086513 4.6171875 9.328125 C5.69226563 9.96234375 6.76734375 10.5965625 7.875 11.25 C14.63786531 15.32401525 14.63786531 15.32401525 17 18 C16.34 20.31 15.68 22.62 15 25 C14.67 25 14.34 25 14 25 C13.79246094 24.09765625 13.58492187 23.1953125 13.37109375 22.265625 C11.65111177 18.16902973 9.81046346 17.0578369 6.0625 14.75 C5.00160156 14.08484375 3.94070312 13.4196875 2.84765625 12.734375 C1.90792969 12.16203125 0.96820313 11.5896875 0 11 C-0.99 10.34 -1.98 9.68 -3 9 C-2.34 9 -1.68 9 -1 9 C-0.67 6.03 -0.34 3.06 0 0 Z " fill="#649DE4" transform="translate(183,117)"/>
<path d="M0 0 C3.78472282 3.44869603 6.45287906 7.38053159 9.25 11.625 C9.70890625 12.305625 10.1678125 12.98625 10.640625 13.6875 C14 18.74655878 14 18.74655878 14 21 C9.45992312 20.48811219 9.45992312 20.48811219 7.42260742 18.32592773 C6.77062378 17.26547241 6.77062378 17.26547241 6.10546875 16.18359375 C5.38520508 15.03793945 5.38520508 15.03793945 4.65039062 13.86914062 C4.16763672 13.06669922 3.68488281 12.26425781 3.1875 11.4375 C2.68541016 10.63119141 2.18332031 9.82488281 1.66601562 8.99414062 C0.42973316 7.00431456 -0.79130829 5.00666293 -2 3 C-1.34 2.67 -0.68 2.34 0 2 C0 1.34 0 0.68 0 0 Z " fill="#5C97E1" transform="translate(133,45)"/>
<path d="M0 0 C2.4819155 3.72287325 4.52779526 7.61385671 6.625 11.5625 C7.25535156 12.73329102 7.25535156 12.73329102 7.8984375 13.92773438 C8.29546875 14.67474609 8.6925 15.42175781 9.1015625 16.19140625 C9.46588379 16.87404541 9.83020508 17.55668457 10.20556641 18.26000977 C11 20 11 20 11 22 C10.01 22 9.02 22 8 22 C7.67 22.66 7.34 23.32 7 24 C6.44570312 22.80761719 5.89140625 21.61523438 5.3203125 20.38671875 C4.58866968 18.8202527 3.85689179 17.25384974 3.125 15.6875 C2.76019531 14.90181641 2.39539063 14.11613281 2.01953125 13.30664062 C1.66503906 12.54931641 1.31054688 11.79199219 0.9453125 11.01171875 C0.62062988 10.31522217 0.29594727 9.61872559 -0.03857422 8.90112305 C-1.07423509 6.759181 -1.07423509 6.759181 -3 4 C-2.01 2.68 -1.02 1.36 0 0 Z " fill="#7AAAE7" transform="translate(146,134)"/>
<path d="M0 0 C0.33 0 0.66 0 1 0 C1.33 7.92 1.66 15.84 2 24 C4.97 19.38 7.94 14.76 11 10 C11.66 10.33 12.32 10.66 13 11 C13.36539443 15.28577219 12.48423598 17.34492062 10 20.8125 C9.443125 21.60269531 8.88625 22.39289063 8.3125 23.20703125 C7.879375 23.79871094 7.44625 24.39039063 7 25 C6.34 24.34 5.68 23.68 5 23 C4.34 23.99 3.68 24.98 3 26 C2.01 26 1.02 26 0 26 C0 17.42 0 8.84 0 0 Z " fill="#4484DA" transform="translate(111,153)"/>
<path d="M0 0 C0.66 0.33 1.32 0.66 2 1 C-0.97 7.93 -3.94 14.86 -7 22 C-7.66 21.67 -8.32 21.34 -9 21 C-9.33 21.66 -9.66 22.32 -10 23 C-10.66 23 -11.32 23 -12 23 C-9.66062389 15.33204498 -6.45231194 8.22862726 -3 1 C-2.34 1.33 -1.68 1.66 -1 2 C-0.67 1.34 -0.34 0.68 0 0 Z " fill="#4988DA" transform="translate(173,128)"/>
<path d="M0 0 C1.73152958 1.07955259 3.46011684 2.16382512 5.1875 3.25 C6.15042969 3.85328125 7.11335937 4.4565625 8.10546875 5.078125 C10.87405327 6.91637545 13.43957951 8.88425949 16 11 C15.34 11 14.68 11 14 11 C13.67 11.99 13.34 12.98 13 14 C7.8411204 11.20274084 2.82657501 8.341475 -2 5 C-1.34 4.67 -0.68 4.34 0 4 C0 2.68 0 1.36 0 0 Z " fill="#4E8EE2" transform="translate(130,109)"/>
<path d="M0 0 C0.66 0.33 1.32 0.66 2 1 C2 1.66 2 2.32 2 3 C2.66 3.33 3.32 3.66 4 4 C1.68923915 5.50273996 -0.62347911 7.00229552 -2.9375 8.5 C-3.59685547 8.92925781 -4.25621094 9.35851562 -4.93554688 9.80078125 C-9.88671875 13 -9.88671875 13 -11 13 C-11.3359375 10.24609375 -11.3359375 10.24609375 -11 7 C-8.6640625 4.84765625 -8.6640625 4.84765625 -5.625 3.0625 C-4.62726563 2.45535156 -3.62953125 1.84820312 -2.6015625 1.22265625 C-1.74304688 0.81917969 -0.88453125 0.41570312 0 0 Z " fill="#5E9AE4" transform="translate(142,75)"/>
<path d="M0 0 C5.8085307 7.30750637 8.76418109 14.67699076 8 24 C2.1914693 16.69249363 -0.76418109 9.32300924 0 0 Z " fill="#5E98E0" transform="translate(192,109)"/>
<path d="M0 0 C0.99 0.66 1.98 1.32 3 2 C3.66 1.34 4.32 0.68 5 0 C7 3 7 3 7 6 C3.15543893 9.93396947 3.15543893 9.93396947 1 11 C-0.65 10.67 -2.3 10.34 -4 10 C-2.68 6.7 -1.36 3.4 0 0 Z " fill="#6EA3E5" transform="translate(181,104)"/>
<path d="M0 0 C0.33 0 0.66 0 1 0 C1 1.65 1 3.3 1 5 C1.804375 5.226875 2.60875 5.45375 3.4375 5.6875 C7.91285739 7.33631588 11.88721318 9.60544412 16 12 C15.67 12.99 15.34 13.98 15 15 C9.31497465 13.35433477 4.23318364 10.70967216 -1 8 C-0.67 5.36 -0.34 2.72 0 0 Z " fill="#81B3EA" transform="translate(164,32)"/>
<path d="M0 0 C0 8.91 0 17.82 0 27 C-0.33 27 -0.66 27 -1 27 C-1.33 23.37 -1.66 19.74 -2 16 C-2.33 16 -2.66 16 -3 16 C-4.32286246 11.03926578 -4.08893197 6.08888488 -4 1 C-1 0 -1 0 0 0 Z " fill="#9DC6F2" transform="translate(207,65)"/>
<path d="M0 0 C0.33 1.32 0.66 2.64 1 4 C-3.95 6.31 -8.9 8.62 -14 11 C-14 9.35 -14 7.7 -14 6 C-12.04414675 4.99515796 -10.08523763 3.99626195 -8.125 3 C-6.48917969 2.1646875 -6.48917969 2.1646875 -4.8203125 1.3125 C-2 0 -2 0 0 0 Z " fill="#3F82DB" transform="translate(143,168)"/>
<path d="M0 0 C0.66 0.33 1.32 0.66 2 1 C3.70702735 1.06996014 5.41668003 1.08440154 7.125 1.0625 C8.03507813 1.05347656 8.94515625 1.04445313 9.8828125 1.03515625 C10.93082031 1.01775391 10.93082031 1.01775391 12 1 C12.33 1.66 12.66 2.32 13 3 C12.67 3.66 12.34 4.32 12 5 C8.04 5 4.08 5 0 5 C-0.33 6.32 -0.66 7.64 -1 9 C-2.0326802 6.21176345 -2.04509293 5.1322726 -1.0625 2.25 C-0.711875 1.5075 -0.36125 0.765 0 0 Z " fill="#D2E5F7" transform="translate(157,72)"/>
<path d="M0 0 C0.33 0.99 0.66 1.98 1 3 C1.66 3.33 2.32 3.66 3 4 C1.11191474 4.72873466 -0.78591254 5.43226247 -2.6875 6.125 C-3.74324219 6.51945312 -4.79898438 6.91390625 -5.88671875 7.3203125 C-9.41699299 8.09103737 -10.85953322 7.66637013 -14 6 C-11.09091772 4.06061181 -8.59137621 3.03225043 -5.3125 1.875 C-4.31863281 1.52179687 -3.32476562 1.16859375 -2.30078125 0.8046875 C-1.54152344 0.53914063 -0.78226563 0.27359375 0 0 Z " fill="#71A7E4" transform="translate(150,35)"/>
<path d="M0 0 C0.33 0 0.66 0 1 0 C1 1.98 1 3.96 1 6 C-3.29 6.66 -7.58 7.32 -12 8 C-12 6.68 -12 5.36 -12 4 C-8.04 3.34 -4.08 2.68 0 2 C0 1.34 0 0.68 0 0 Z " fill="#80AFEA" transform="translate(169,118)"/>
<path d="M0 0 C4.85963179 0.60745397 8.7405518 2.72758967 13 5 C12.67 5.99 12.34 6.98 12 8 C7.14036821 7.39254603 3.2594482 5.27241033 -1 3 C-0.67 2.01 -0.34 1.02 0 0 Z " fill="#639DE4" transform="translate(118,15)"/>
<path d="M0 0 C0.99 0 1.98 0 3 0 C3 5.28 3 10.56 3 16 C1.68 16.33 0.36 16.66 -1 17 C-0.67 11.39 -0.34 5.78 0 0 Z " fill="#75ACEC" transform="translate(203,76)"/>
<path d="M0 0 C1.75 0.0625 1.75 0.0625 4 1 C6.00840495 3.70049044 8 6.55126733 8 10 C7.01 10 6.02 10 5 10 C4.67 10.66 4.34 11.32 4 12 C3.32645501 10.56570999 2.66140299 9.12742943 2 7.6875 C1.62875 6.88699219 1.2575 6.08648437 0.875 5.26171875 C0 3 0 3 0 0 Z " fill="#6DA0E2" transform="translate(149,146)"/>
<path d="M0 0 C0.66 0.66 1.32 1.32 2 2 C1.67800066 5.97132519 0.16420003 8.70665213 -2 12 C-2.33 11.34 -2.66 10.68 -3 10 C-3.66 10 -4.32 10 -5 10 C-3.66511872 6.40608886 -2.03977277 3.24509304 0 0 Z " fill="#4B8BDD" transform="translate(159,105)"/>
<path d="M0 0 C0.99 0.33 1.98 0.66 3 1 C1.98679687 1.96099609 1.98679687 1.96099609 0.953125 2.94140625 C-3.92085643 7.66747784 -8.0602204 11.8531881 -11 18 C-11.33 17.34 -11.66 16.68 -12 16 C-9.08977818 9.7039559 -5.10995655 4.62329402 0 0 Z " fill="#377FDA" transform="translate(75,61)"/>
<path d="M0 0 C1.32 0.99 2.64 1.98 4 3 C1.36 4.65 -1.28 6.3 -4 8 C-4.33 7.01 -4.66 6.02 -5 5 C-5.66 5 -6.32 5 -7 5 C-5.49336217 1.98672434 -2.96833589 1.38943382 0 0 Z " fill="#78A9E5" transform="translate(197,102)"/>
<path d="M0 0 C1.9453125 0.77734375 1.9453125 0.77734375 4.125 1.9375 C5.21167969 2.50791016 5.21167969 2.50791016 6.3203125 3.08984375 C6.87460938 3.39019531 7.42890625 3.69054688 8 4 C8 4.99 8 5.98 8 7 C4.68437443 6.44739574 1.84937793 5.83174295 -1 4 C-1.33 3.01 -1.66 2.02 -2 1 C-1.34 0.67 -0.68 0.34 0 0 Z " fill="#87B8EE" transform="translate(180,44)"/>
<path d="M0 0 C1.8125 0.75 1.8125 0.75 2.8125 2.75 C-4.1175 5.72 -4.1175 5.72 -11.1875 8.75 C-11.1875 8.09 -11.1875 7.43 -11.1875 6.75 C-9.2075 5.76 -7.2275 4.77 -5.1875 3.75 C-5.5175 3.09 -5.8475 2.43 -6.1875 1.75 C-3.9127187 0.36888278 -2.68578639 -0.30694702 0 0 Z " fill="#5693E0" transform="translate(197.1875,142.25)"/>
<path d="M0 0 C0.66 0.33 1.32 0.66 2 1 C2 1.66 2 2.32 2 3 C2.66 3.33 3.32 3.66 4 4 C1.69 5.32 -0.62 6.64 -3 8 C-3.66 7.34 -4.32 6.68 -5 6 C-2.25 1.125 -2.25 1.125 0 0 Z " fill="#6DA5E9" transform="translate(142,75)"/>
<path d="M0 0 C0.99 0.99 1.98 1.98 3 3 C3 3.99 3 4.98 3 6 C0.5 8.1875 0.5 8.1875 -2 10 C-2.66 9.67 -3.32 9.34 -4 9 C-2.68 6.03 -1.36 3.06 0 0 Z " fill="#DEEEF9" transform="translate(185,104)"/>
<path d="M0 0 C2.31 1.65 4.62 3.3 7 5 C6.67 6.65 6.34 8.3 6 10 C5.34 10 4.68 10 4 10 C3.32845067 8.71086513 2.66291141 7.41859796 2 6.125 C1.62875 5.40570313 1.2575 4.68640625 0.875 3.9453125 C0 2 0 2 0 0 Z " fill="#E0F0F9" transform="translate(181,83)"/>
<path d="M0 0 C-2.06756277 2.7972908 -3.14440371 3.02692273 -6.6875 3.6875 C-7.780625 3.790625 -8.87375 3.89375 -10 4 C-9.34 3.67 -8.68 3.34 -8 3 C-7.67 2.01 -7.34 1.02 -7 0 C-4.3333581 -1.33332095 -2.83319697 -0.67102033 0 0 Z " fill="#2E79DB" transform="translate(151,167)"/>
<path d="M0 0 C2.97 0.33 5.94 0.66 9 1 C9 1.66 9 2.32 9 3 C1.73846154 5.21538462 1.73846154 5.21538462 -2 4.125 C-2.66 3.75375 -3.32 3.3825 -4 3 C-2.68 2.67 -1.36 2.34 0 2 C0 1.34 0 0.68 0 0 Z " fill="#4284DA" transform="translate(123,149)"/>
<path d="M0 0 C0.33 0.66 0.66 1.32 1 2 C1.66 2 2.32 2 3 2 C3 2.66 3 3.32 3 4 C1.35 4.66 -0.3 5.32 -2 6 C-2 5.34 -2 4.68 -2 4 C-3.98 4.33 -5.96 4.66 -8 5 C-5.44008376 2.98863724 -2.95409701 1.37154504 0 0 Z " fill="#4689DC" transform="translate(137,129)"/>
<path d="M0 0 C0.33 0 0.66 0 1 0 C1 1.65 1 3.3 1 5 C3.475 5.99 3.475 5.99 6 7 C6 7.99 6 8.98 6 10 C1.25 9.25 1.25 9.25 -1 7 C-0.625 3.375 -0.625 3.375 0 0 Z " fill="#78ACE8" transform="translate(164,32)"/>
<path d="M0 0 C0.33 0.66 0.66 1.32 1 2 C1.99 2 2.98 2 4 2 C3.74438677 4.3431213 3.40729228 6.67843403 3 9 C2.01 9.495 2.01 9.495 1 10 C-0.60725635 6.78548731 -0.05748185 3.56387464 0 0 Z " fill="#93BBEA" transform="translate(153,40)"/>
<path d="M0 0 C0.33 0 0.66 0 1 0 C0.25 6.75 0.25 6.75 -2 9 C-2.66 9 -3.32 9 -4 9 C-3.67 7.35 -3.34 5.7 -3 4 C-2.34 4 -1.68 4 -1 4 C-0.67 2.68 -0.34 1.36 0 0 Z " fill="#397FDB" transform="translate(164,147)"/>
<path d="M0 0 C0.33 0 0.66 0 1 0 C1.12375 1.11375 1.2475 2.2275 1.375 3.375 C1.6465813 7.03103677 1.6465813 7.03103677 4 9 C3.01 9.495 3.01 9.495 2 10 C1.67 10.66 1.34 11.32 1 12 C-0.32 11.01 -1.64 10.02 -3 9 C-2.34 9 -1.68 9 -1 9 C-0.67 6.03 -0.34 3.06 0 0 Z " fill="#78ABE5" transform="translate(183,117)"/>
<path d="M0 0 C0.33 0 0.66 0 1 0 C1.33 2.31 1.66 4.62 2 7 C0.68 7.99 -0.64 8.98 -2 10 C-2 9.01 -2 8.02 -2 7 C-2.66 6.67 -3.32 6.34 -4 6 C-2.68 5.67 -1.36 5.34 0 5 C0 3.35 0 1.7 0 0 Z " fill="#9AC2EF" transform="translate(197,57)"/>
<path d="M0 0 C-3.1254959 2.64465038 -6.08788267 3.84414715 -10 5 C-9 2 -9 2 -7.25 0.8125 C-4.70039426 -0.10819096 -2.69076919 -0.14948718 0 0 Z " fill="#4A8FE7" transform="translate(194,145)"/>
<path d="M0 0 C2.625 0.9375 2.625 0.9375 5 2 C2.61426621 3.89213369 0.92824652 5.02391783 -2 6 C-2 5.34 -2 4.68 -2 4 C-1.34 4 -0.68 4 0 4 C0 3.34 0 2.68 0 2 C-0.66 1.67 -1.32 1.34 -2 1 C-1.34 0.67 -0.68 0.34 0 0 Z " fill="#3F83DA" transform="translate(124,136)"/>
<path d="M0 0 C0.66 0 1.32 0 2 0 C2.33 2.64 2.66 5.28 3 8 C2.01 8.495 2.01 8.495 1 9 C1 7.68 1 6.36 1 5 C0.34 5 -0.32 5 -1 5 C-0.67 3.35 -0.34 1.7 0 0 Z " fill="#5796E8" transform="translate(190,107)"/>
<path d="M0 0 C3.52069985 0.58678331 5.71299843 1.35649921 9 3 C4.545 3.495 4.545 3.495 0 4 C0 2.68 0 1.36 0 0 Z " fill="#90BAEE" transform="translate(157,122)"/>
<path d="M0 0 C0.66 0 1.32 0 2 0 C2 1.98 2 3.96 2 6 C0.68 5.67 -0.64 5.34 -2 5 C-1.34 3.35 -0.68 1.7 0 0 Z " fill="#99C1EF" transform="translate(149,60)"/>
<path d="M0 0 C0.66 0.33 1.32 0.66 2 1 C1.6875 2.9375 1.6875 2.9375 1 5 C0.01 5.33 -0.98 5.66 -2 6 C-2 5.34 -2 4.68 -2 4 C-2.66 3.67 -3.32 3.34 -4 3 C-2.68 2.01 -1.36 1.02 0 0 Z " fill="#367DDA" transform="translate(120,178)"/>
<path d="M0 0 C-0.66 3.3 -1.32 6.6 -2 10 C-2.33 10 -2.66 10 -3 10 C-3.144375 8.88625 -3.28875 7.7725 -3.4375 6.625 C-3.78372035 3.17857953 -3.78372035 3.17857953 -5 1 C-2 0 -2 0 0 0 Z " fill="#93BFEE" transform="translate(186,71)"/>
</svg>
